<svg width="29" height="27" viewBox="0 0 29 27" fill="none" xmlns="http://www.w3.org/2000/svg">
<path d="M13.1338 7.34264H10.1909C10.0858 5.78713 8.97172 4.94631 6.97478 4.94631C5.33519 4.94631 4.3262 5.68202 4.3262 6.83815C4.3262 7.95223 4.97784 8.39366 7.22702 8.83509L9.62335 9.29754C12.4611 9.84407 13.6803 11.1053 13.6803 13.5226C13.6803 16.6547 11.347 18.4835 7.39519 18.4835C3.48539 18.4835 1.2362 16.6967 1.04702 13.4175H4.116C4.2211 15.0571 5.41927 15.961 7.56335 15.961C9.47621 15.961 10.6534 15.1833 10.6534 13.901C10.6534 12.6608 9.8756 12.0722 7.77356 11.6728L5.62947 11.2524C2.51845 10.6639 1.32028 9.50774 1.32028 7.13243C1.32028 4.14753 3.44335 2.42385 7.12192 2.42385C10.9897 2.42385 13.1127 4.16855 13.1338 7.34264Z" fill="#ECEDED"/>
<path d="M15.6489 18V2.6761H22.4805C24.1201 2.6761 25.1922 3.01243 26.0961 3.79018C26.9579 4.54692 27.4834 5.63998 27.4834 6.71203C27.4834 8.01529 26.8948 8.89815 25.3814 9.86509C27.1261 10.8741 27.9248 12.0722 27.9248 13.5857C27.9248 14.8259 27.3363 16.1082 26.4114 16.8859C25.4865 17.6637 24.3093 18 22.5436 18H15.6489ZM18.802 5.30366V8.77203H22.2283C23.6997 8.77203 24.4565 8.18346 24.4565 7.02733C24.4565 5.89223 23.6997 5.30366 22.2283 5.30366H18.802ZM18.802 11.3996V15.3724H22.5646C24.0991 15.3724 24.8979 14.6998 24.8979 13.3965C24.8979 12.0722 24.0991 11.3996 22.5646 11.3996H18.802Z" fill="#5658DD"/>
</svg>
