<svg width="39" height="39" viewBox="0 0 39 39" fill="none" xmlns="http://www.w3.org/2000/svg">
<path d="M20.1388 1.49559C10.0378 1.27975 1.68288 9.29329 1.47758 19.3944C1.27228 29.4955 9.29437 37.859 19.3954 38.0748C29.4964 38.2906 37.8513 30.2771 38.0566 20.176C38.2619 10.0749 30.2399 1.71143 20.1388 1.49559Z" stroke="#5658DD" stroke-width="1.75351"/>
<path d="M24.8145 17.2678L14.3194 27.6741C14.0108 27.98 13.513 27.9789 13.2058 27.6717L13.0818 27.5477C12.7727 27.2386 12.7738 26.7372 13.0842 26.4294L23.5745 16.0279H17.7128C17.277 16.0279 16.9237 15.6746 16.9237 15.2388V15.0635C16.9237 14.6277 17.277 14.2744 17.7128 14.2744H25.7789C26.2147 14.2744 26.568 14.6277 26.568 15.0635V23.1297C26.568 23.5655 26.2147 23.9187 25.7789 23.9187H25.6035C25.1677 23.9187 24.8145 23.5655 24.8145 23.1297V17.2678Z" fill="#5658DD"/>
</svg>
