<svg width="49" height="49" viewBox="0 0 49 49" fill="none" xmlns="http://www.w3.org/2000/svg">
<g clip-path="url(#clip0_135_49)">
<path d="M24.7706 32.6746C27.0703 32.6746 28.9347 28.9459 28.9347 24.3463C28.9347 19.7467 27.0703 16.0181 24.7706 16.0181C22.4708 16.0181 20.6064 19.7467 20.6064 24.3463C20.6064 28.9459 22.4708 32.6746 24.7706 32.6746Z" stroke="#ACADFF" stroke-width="1.51423" stroke-linecap="square"/>
<path d="M24.7711 16.0181V32.6746M16.4429 24.3463H33.0994" stroke="white" stroke-width="1.51423"/>
<path d="M24.7711 32.6746C29.3707 32.6746 33.0994 28.9459 33.0994 24.3463C33.0994 19.7467 29.3707 16.0181 24.7711 16.0181C20.1716 16.0181 16.4429 19.7467 16.4429 24.3463C16.4429 28.9459 20.1716 32.6746 24.7711 32.6746Z" stroke="white" stroke-width="1.51423" stroke-linecap="square"/>
</g>
<defs>
<clipPath id="clip0_135_49">
<rect width="48.4552" height="48.4552" fill="white" transform="translate(0.543457 0.118652)"/>
</clipPath>
</defs>
</svg>
