<svg width="49" height="49" viewBox="0 0 49 49" fill="none" xmlns="http://www.w3.org/2000/svg">
<path d="M29.5272 32.5559V27.786C30.2297 27.1597 30.7945 26.3942 31.1855 25.538C31.5765 24.6818 31.7852 23.7537 31.7985 22.8126C31.806 21.0278 31.1206 19.3097 29.8866 18.0202C28.6526 16.7307 26.9663 15.9704 25.1829 15.8994C24.2715 15.8728 23.364 16.0295 22.5143 16.36C21.6645 16.6905 20.8898 17.1882 20.2359 17.8236C19.582 18.459 19.0622 19.2192 18.7075 20.0591C18.3527 20.899 18.1701 21.8016 18.1705 22.7134V23.4705L16.6562 27.2561L18.1705 28.0132V31.0416C18.1705 31.4432 18.33 31.8284 18.614 32.1124C18.898 32.3963 19.2831 32.5559 19.6847 32.5559H22.7132C23.7171 32.5559 24.68 32.157 25.39 31.4471C26.0999 30.7372 26.4987 29.7743 26.4987 28.7703V24.9847" stroke="white" stroke-width="1.51423" stroke-linecap="square"/>
<path d="M26.4996 24.986C27.7544 24.986 28.7716 23.9687 28.7716 22.7139C28.7716 21.4591 27.7544 20.4419 26.4996 20.4419C25.2448 20.4419 24.2275 21.4591 24.2275 22.7139C24.2275 23.9687 25.2448 24.986 26.4996 24.986Z" stroke="#ACADFF" stroke-width="1.51423" stroke-linecap="square"/>
</svg>
